<svg width="224" height="138" viewBox="0 0 224 138" fill="none" xmlns="http://www.w3.org/2000/svg">
<path d="M74.8034 0H34.9082C30.7769 0 27.4279 3.34907 27.4279 7.48035V17.4542C27.4279 21.5854 30.7769 24.9345 34.9082 24.9345H74.8034C78.9347 24.9345 82.2838 21.5854 82.2838 17.4542V7.48035C82.2838 3.34907 78.9347 0 74.8034 0Z" fill="#E0D8CE"/>
<path d="M109.712 24.9346H0V134.646H109.712V24.9346Z" fill="#E0D8CE"/>
<path d="M39.7044 103.882V61.7527H32.8224V56.0078H53.0792V61.7527H46.1973V103.882H39.7044ZM56.1976 103.882V56.0078H73.2827V61.7527H62.6606V76.7733H72.6843V82.5182H62.6606V103.882H56.1976Z" fill="#FB0400"/>
<path d="M133.927 79.9346V40.4383H127.475V35.0525H146.465V40.4383H140.014V79.9346H133.927ZM158.238 80.4114C154.872 80.4114 152.441 79.7008 150.945 78.2795C149.468 76.8396 148.701 74.4552 148.645 71.1265C148.589 68.8823 148.551 66.6195 148.532 64.338C148.514 62.0565 148.504 59.775 148.504 57.4935C148.504 55.1933 148.514 52.9118 148.532 50.649C148.551 48.3675 148.589 46.0953 148.645 43.8325C148.701 40.5225 149.468 38.1568 150.945 36.7355C152.441 35.2956 154.872 34.5756 158.238 34.5756C161.604 34.5756 164.017 35.2956 165.475 36.7355C166.953 38.1568 167.729 40.5225 167.804 43.8325C167.879 46.114 167.925 48.3955 167.944 50.677C167.981 52.9585 168 55.2401 168 57.5216C168 59.8031 167.981 62.0846 167.944 64.3661C167.925 66.6289 167.879 68.8823 167.804 71.1265C167.729 74.4552 166.953 76.8396 165.475 78.2795C164.017 79.7008 161.604 80.4114 158.238 80.4114ZM158.238 75.3903C159.435 75.3903 160.314 75.1378 160.875 74.6329C161.436 74.1092 161.726 73.2958 161.745 72.1924C161.838 69.8735 161.894 67.4704 161.913 64.9832C161.95 62.4773 161.969 59.9527 161.969 57.4094C161.969 54.866 161.95 52.3601 161.913 49.8916C161.876 47.4231 161.819 45.0481 161.745 42.7666C161.726 41.6632 161.427 40.8591 160.847 40.3542C160.286 39.8305 159.416 39.5687 158.238 39.5687C157.06 39.5687 156.181 39.8305 155.601 40.3542C155.04 40.8591 154.741 41.6632 154.704 42.7666C154.629 45.0481 154.564 47.4231 154.507 49.8916C154.47 52.3601 154.451 54.866 154.451 57.4094C154.47 59.9527 154.498 62.4773 154.535 64.9832C154.573 67.4704 154.629 69.8735 154.704 72.1924C154.741 73.2958 155.04 74.1092 155.601 74.6329C156.181 75.1378 157.06 75.3903 158.238 75.3903ZM172.838 79.9346V35.0525H182.095L185.012 49.3025L188.463 74.5487H189.837L188.715 52.6126L188.266 35.0525H194.157V79.9346H184.479L181.394 64.5344L178.645 40.4103H177.186L178.224 62.9355L178.701 79.9346H172.838ZM199.355 79.9346V35.0525H205.414V79.9346H199.355Z" fill="#E0D8CE"/>
<path d="M129.079 128.518V95.604H140.825V99.5536H133.523V109.88H140.414V113.83H133.523V128.518H129.079ZM150.234 128.867C147.765 128.867 145.982 128.346 144.885 127.304C143.802 126.248 143.239 124.499 143.198 122.058C143.157 120.413 143.13 118.753 143.116 117.08C143.102 115.407 143.095 113.734 143.095 112.061C143.095 110.374 143.102 108.701 143.116 107.041C143.13 105.368 143.157 103.702 143.198 102.043C143.239 99.6154 143.802 97.8805 144.885 96.8383C145.982 95.7823 147.765 95.2543 150.234 95.2543C152.702 95.2543 154.471 95.7823 155.541 96.8383C156.624 97.8805 157.193 99.6154 157.248 102.043C157.303 103.716 157.337 105.389 157.351 107.062C157.379 108.735 157.392 110.408 157.392 112.081C157.392 113.754 157.379 115.428 157.351 117.101C157.337 118.76 157.303 120.413 157.248 122.058C157.193 124.499 156.624 126.248 155.541 127.304C154.471 128.346 152.702 128.867 150.234 128.867ZM150.234 125.185C151.111 125.185 151.756 125 152.167 124.63C152.579 124.246 152.791 123.649 152.805 122.84C152.874 121.139 152.915 119.377 152.928 117.553C152.956 115.716 152.97 113.864 152.97 111.999C152.97 110.134 152.956 108.296 152.928 106.486C152.901 104.676 152.86 102.934 152.805 101.261C152.791 100.452 152.572 99.8622 152.147 99.4919C151.735 99.1079 151.098 98.916 150.234 98.916C149.37 98.916 148.725 99.1079 148.3 99.4919C147.888 99.8622 147.669 100.452 147.642 101.261C147.587 102.934 147.539 104.676 147.498 106.486C147.47 108.296 147.457 110.134 147.457 111.999C147.47 113.864 147.491 115.716 147.518 117.553C147.546 119.377 147.587 121.139 147.642 122.84C147.669 123.649 147.888 124.246 148.3 124.63C148.725 125 149.37 125.185 150.234 125.185ZM167.831 128.867C166.158 128.867 164.814 128.641 163.8 128.188C162.798 127.722 162.058 126.988 161.578 125.987C161.112 124.973 160.851 123.649 160.796 122.017C160.755 120.509 160.728 118.918 160.714 117.245C160.7 115.558 160.693 113.857 160.693 112.143C160.693 110.415 160.7 108.721 160.714 107.062C160.728 105.389 160.755 103.805 160.796 102.31C160.865 100.61 161.139 99.2451 161.619 98.2165C162.099 97.1743 162.84 96.42 163.841 95.9537C164.855 95.4875 166.179 95.2543 167.811 95.2543C170.156 95.2543 171.863 95.7823 172.933 96.8383C174.016 97.8943 174.627 99.6359 174.764 102.063C174.805 102.914 174.826 103.819 174.826 104.779C174.826 105.725 174.805 106.623 174.764 107.473H170.32C170.362 106.541 170.382 105.512 170.382 104.388C170.382 103.25 170.362 102.214 170.32 101.282C170.279 100.486 170.046 99.8965 169.621 99.5125C169.21 99.1148 168.606 98.916 167.811 98.916C166.974 98.916 166.343 99.1148 165.918 99.5125C165.507 99.8965 165.281 100.486 165.239 101.282C165.185 102.996 165.137 104.758 165.095 106.568C165.068 108.379 165.054 110.203 165.054 112.04C165.054 113.878 165.068 115.702 165.095 117.512C165.137 119.322 165.185 121.085 165.239 122.799C165.281 123.608 165.507 124.211 165.918 124.609C166.343 124.993 166.981 125.185 167.831 125.185C168.682 125.185 169.34 124.993 169.806 124.609C170.272 124.211 170.526 123.608 170.567 122.799C170.581 122.278 170.588 121.702 170.588 121.071C170.602 120.426 170.602 119.795 170.588 119.178C170.588 118.548 170.581 117.965 170.567 117.43H168.058V113.542H174.908C174.949 114.694 174.963 115.997 174.949 117.45C174.949 118.904 174.922 120.426 174.867 122.017C174.771 124.458 174.174 126.214 173.077 127.283C171.994 128.339 170.245 128.867 167.831 128.867ZM184.983 128.867C182.487 128.867 180.698 128.346 179.614 127.304C178.545 126.248 177.996 124.499 177.969 122.058C177.914 117.67 177.886 113.261 177.886 108.831C177.886 104.388 177.914 99.9788 177.969 95.604H182.412C182.371 98.5251 182.343 101.528 182.33 104.614C182.316 107.686 182.316 110.765 182.33 113.85C182.343 116.922 182.364 119.919 182.391 122.84C182.391 123.622 182.611 124.211 183.05 124.609C183.489 124.993 184.133 125.185 184.983 125.185C185.847 125.185 186.485 124.993 186.897 124.609C187.322 124.211 187.534 123.622 187.534 122.84C187.562 119.919 187.582 116.922 187.596 113.85C187.61 110.765 187.61 107.686 187.596 104.614C187.596 101.528 187.575 98.5251 187.534 95.604H191.978C192.046 99.9788 192.08 104.388 192.08 108.831C192.08 113.261 192.046 117.67 191.978 122.058C191.95 124.499 191.395 126.248 190.311 127.304C189.242 128.346 187.466 128.867 184.983 128.867ZM195.533 128.518V95.604H207.279V99.5536H199.976V109.88H206.868V113.83H199.976V124.568H207.279V128.518H195.533ZM210.118 128.518V95.604H214.561V124.568H221.905V128.518H210.118Z" fill="#E0D8CE"/>
</svg>
