<svg width="512" height="512" viewBox="0 0 110 135" fill="none" xmlns="http://www.w3.org/2000/svg">
  <!-- Cap -->
  <path d="M74.8034 0H34.9082C30.7769 0 27.4279 3.34907 27.4279 7.48035V17.4542C27.4279 21.5854 30.7769 24.9345 34.9082 24.9345H74.8034C78.9347 24.9345 82.2838 21.5854 82.2838 17.4542V7.48035C82.2838 3.34907 78.9347 0 74.8034 0Z" fill="#FB0400"/>
  <!-- Body -->
  <path d="M109.712 24.9346H0V134.646H109.712V24.9346Z" fill="#FB0400"/>
  <!-- TF letters -->
  <path d="M39.7044 103.882V61.7527H32.8224V56.0078H53.0792V61.7527H46.1973V103.882H39.7044ZM56.1976 103.882V56.0078H73.2827V61.7527H62.6606V76.7733H72.6843V82.5182H62.6606V103.882H56.1976Z" fill="#E0D8CE"/>
</svg>
